<svg xmlns="http://www.w3.org/2000/svg" width="1200" height="720" viewBox="0 0 1200 720" role="img" aria-label="MARIO Decoder Training Loss Trend">
<rect width="100%" height="100%" fill="#ffffff"/>
<style>
text{font-family:Arial,Helvetica,sans-serif;fill:#1f2937}.title{font-size:26px;font-weight:700}.subtitle{font-size:14px;fill:#4b5563}.axis{stroke:#111827;stroke-width:1.4}.grid{stroke:#e5e7eb;stroke-width:1}.tick{font-size:12px;fill:#4b5563}.legend{font-size:14px}.note{font-size:12px;fill:#374151}.line{fill:none;stroke-width:2.7;stroke-linejoin:round;stroke-linecap:round}.dash{stroke-dasharray:6 5}.barlabel{font-size:11px;fill:#374151}
</style>
<text x="92" y="36" class="title">MARIO Decoder Training Loss Trend</text>
<text x="92" y="60" class="subtitle">Final successful run segment, epochs 131-500; best train loss at epoch 500</text>
<line x1="92" y1="632.00" x2="1164" y2="632.00" class="grid"/>
<text x="80" y="636.00" text-anchor="end" class="tick">0</text>
<line x1="92" y1="522.00" x2="1164" y2="522.00" class="grid"/>
<text x="80" y="526.00" text-anchor="end" class="tick">0.173</text>
<line x1="92" y1="412.00" x2="1164" y2="412.00" class="grid"/>
<text x="80" y="416.00" text-anchor="end" class="tick">0.346</text>
<line x1="92" y1="302.00" x2="1164" y2="302.00" class="grid"/>
<text x="80" y="306.00" text-anchor="end" class="tick">0.52</text>
<line x1="92" y1="192.00" x2="1164" y2="192.00" class="grid"/>
<text x="80" y="196.00" text-anchor="end" class="tick">0.693</text>
<line x1="92" y1="82.00" x2="1164" y2="82.00" class="grid"/>
<text x="80" y="86.00" text-anchor="end" class="tick">0.866</text>
<line x1="92.00" y1="82" x2="92.00" y2="632" class="grid"/>
<text x="92.00" y="656" text-anchor="middle" class="tick">131</text>
<line x1="147.20" y1="82" x2="147.20" y2="632" class="grid"/>
<text x="147.20" y="656" text-anchor="middle" class="tick">150</text>
<line x1="292.46" y1="82" x2="292.46" y2="632" class="grid"/>
<text x="292.46" y="656" text-anchor="middle" class="tick">200</text>
<line x1="437.71" y1="82" x2="437.71" y2="632" class="grid"/>
<text x="437.71" y="656" text-anchor="middle" class="tick">250</text>
<line x1="582.97" y1="82" x2="582.97" y2="632" class="grid"/>
<text x="582.97" y="656" text-anchor="middle" class="tick">300</text>
<line x1="728.23" y1="82" x2="728.23" y2="632" class="grid"/>
<text x="728.23" y="656" text-anchor="middle" class="tick">350</text>
<line x1="873.49" y1="82" x2="873.49" y2="632" class="grid"/>
<text x="873.49" y="656" text-anchor="middle" class="tick">400</text>
<line x1="1018.74" y1="82" x2="1018.74" y2="632" class="grid"/>
<text x="1018.74" y="656" text-anchor="middle" class="tick">450</text>
<line x1="1164.00" y1="82" x2="1164.00" y2="632" class="grid"/>
<text x="1164.00" y="656" text-anchor="middle" class="tick">500</text>
<line x1="92" y1="632" x2="1164" y2="632" class="axis"/>
<line x1="92" y1="82" x2="92" y2="632" class="axis"/>
<text x="628.00" y="692" text-anchor="middle" class="tick">Epoch</text>
<text x="24" y="357.00" text-anchor="middle" class="tick" transform="rotate(-90 24 357.00)">Loss</text>
<path d="M 92.00 364.27 L 94.91 391.07 L 97.81 413.75 L 100.72 382.73 L 103.62 394.23 L 106.53 410.04 L 109.43 416.25 L 112.34 377.84 L 115.24 425.69 L 118.15 374.21 L 121.05 380.84 L 123.96 405.75 L 126.86 427.36 L 129.77 404.82 L 132.67 391.10 L 135.58 430.28 L 138.48 366.56 L 141.39 412.06 L 144.29 328.25 L 147.20 408.91 L 150.10 420.37 L 153.01 448.21 L 155.91 447.67 L 158.82 418.62 L 161.72 432.56 L 164.63 420.16 L 167.53 415.44 L 170.44 408.66 L 173.34 419.72 L 176.25 433.18 L 179.15 369.92 L 182.06 413.06 L 184.96 406.97 L 187.87 435.47 L 190.78 429.11 L 193.68 397.46 L 196.59 337.20 L 199.49 424.54 L 202.40 418.75 L 205.30 402.17 L 208.21 415.62 L 211.11 453.34 L 214.02 430.43 L 216.92 416.62 L 219.83 426.45 L 222.73 405.75 L 225.64 401.37 L 228.54 384.21 L 231.45 426.63 L 234.35 441.99 L 237.26 414.74 L 240.16 418.63 L 243.07 400.57 L 245.97 479.13 L 248.88 421.67 L 251.78 427.64 L 254.69 382.77 L 257.59 395.38 L 260.50 394.09 L 263.40 376.59 L 266.31 374.13 L 269.21 453.30 L 272.12 397.10 L 275.02 416.09 L 277.93 436.95 L 280.83 435.28 L 283.74 406.50 L 286.64 410.30 L 289.55 420.95 L 292.46 403.92 L 295.36 436.34 L 298.27 416.97 L 301.17 458.07 L 304.08 432.72 L 306.98 473.01 L 309.89 447.02 L 312.79 398.55 L 315.70 410.77 L 318.60 401.71 L 321.51 426.79 L 324.41 429.48 L 327.32 401.46 L 330.22 416.74 L 333.13 424.13 L 336.03 408.42 L 338.94 381.82 L 341.84 440.26 L 344.75 401.02 L 347.65 417.15 L 350.56 438.22 L 353.46 429.85 L 356.37 450.72 L 359.27 406.04 L 362.18 430.10 L 365.08 420.77 L 367.99 434.28 L 370.89 412.03 L 373.80 391.48 L 376.70 464.05 L 379.61 467.54 L 382.51 462.34 L 385.42 424.54 L 388.33 458.27 L 391.23 437.82 L 394.14 428.05 L 397.04 442.01 L 399.95 392.56 L 402.85 431.15 L 405.76 463.88 L 408.66 390.49 L 411.57 406.36 L 414.47 445.11 L 417.38 451.48 L 420.28 435.96 L 423.19 458.36 L 426.09 445.18 L 429.00 430.15 L 431.90 396.44 L 434.81 416.20 L 437.71 426.36 L 440.62 463.62 L 443.52 446.61 L 446.43 451.38 L 449.33 442.16 L 452.24 461.64 L 455.14 472.11 L 458.05 451.73 L 460.95 394.05 L 463.86 414.47 L 466.76 410.44 L 469.67 477.00 L 472.57 450.07 L 475.48 467.25 L 478.38 427.80 L 481.29 458.10 L 484.20 426.98 L 487.10 462.22 L 490.01 443.56 L 492.91 456.37 L 495.82 383.15 L 498.72 440.19 L 501.63 434.82 L 504.53 421.28 L 507.44 418.30 L 510.34 462.88 L 513.25 413.65 L 516.15 455.98 L 519.06 447.28 L 521.96 456.18 L 524.87 426.27 L 527.77 461.92 L 530.68 437.45 L 533.58 427.99 L 536.49 440.17 L 539.39 460.06 L 542.30 482.65 L 545.20 429.24 L 548.11 495.45 L 551.01 449.35 L 553.92 464.71 L 556.82 463.18 L 559.73 423.07 L 562.63 453.80 L 565.54 422.77 L 568.44 406.85 L 571.35 457.84 L 574.25 425.70 L 577.16 478.32 L 580.07 446.07 L 582.97 470.06 L 585.88 460.40 L 588.78 421.37 L 591.69 427.85 L 594.59 431.50 L 597.50 441.97 L 600.40 407.13 L 603.31 483.11 L 606.21 470.88 L 609.12 443.53 L 612.02 435.78 L 614.93 445.29 L 617.83 446.87 L 620.74 434.90 L 623.64 453.59 L 626.55 477.34 L 629.45 441.54 L 632.36 448.19 L 635.26 486.51 L 638.17 417.90 L 641.07 482.82 L 643.98 443.44 L 646.88 481.84 L 649.79 469.81 L 652.69 453.60 L 655.60 432.36 L 658.50 426.52 L 661.41 442.04 L 664.31 465.44 L 667.22 464.20 L 670.12 477.58 L 673.03 485.70 L 675.93 468.66 L 678.84 469.23 L 681.75 489.42 L 684.65 489.85 L 687.56 454.18 L 690.46 480.36 L 693.37 451.54 L 696.27 462.61 L 699.18 467.06 L 702.08 436.03 L 704.99 457.24 L 707.89 474.90 L 710.80 446.26 L 713.70 466.01 L 716.61 452.03 L 719.51 429.26 L 722.42 486.93 L 725.32 439.56 L 728.23 472.66 L 731.13 468.31 L 734.04 442.46 L 736.94 495.87 L 739.85 487.44 L 742.75 470.80 L 745.66 484.74 L 748.56 472.04 L 751.47 476.69 L 754.37 481.83 L 757.28 495.86 L 760.18 424.32 L 763.09 493.69 L 765.99 470.08 L 768.90 420.21 L 771.80 473.36 L 774.71 487.84 L 777.62 465.68 L 780.52 487.47 L 783.43 412.86 L 786.33 469.85 L 789.24 462.22 L 792.14 487.23 L 795.05 488.27 L 797.95 497.80 L 800.86 442.08 L 803.76 468.07 L 806.67 459.99 L 809.57 486.30 L 812.48 468.02 L 815.38 472.01 L 818.29 482.97 L 821.19 486.15 L 824.10 492.80 L 827.00 464.34 L 829.91 470.53 L 832.81 476.78 L 835.72 473.65 L 838.62 501.57 L 841.53 463.80 L 844.43 489.06 L 847.34 487.50 L 850.24 468.90 L 853.15 475.23 L 856.05 495.69 L 858.96 447.43 L 861.86 472.48 L 864.77 493.40 L 867.67 484.76 L 870.58 434.66 L 873.49 499.06 L 876.39 486.51 L 879.30 429.29 L 882.20 453.11 L 885.11 521.22 L 888.01 491.50 L 890.92 440.84 L 893.82 485.21 L 896.73 498.78 L 899.63 493.48 L 902.54 472.91 L 905.44 512.17 L 908.35 458.92 L 911.25 471.05 L 914.16 458.15 L 917.06 470.67 L 919.97 449.39 L 922.87 504.44 L 925.78 479.85 L 928.68 487.44 L 931.59 473.82 L 934.49 490.40 L 937.40 485.13 L 940.30 510.03 L 943.21 465.40 L 946.11 473.80 L 949.02 496.47 L 951.92 505.97 L 954.83 514.71 L 957.73 484.51 L 960.64 499.75 L 963.54 510.92 L 966.45 469.90 L 969.36 506.18 L 972.26 492.99 L 975.17 461.61 L 978.07 440.94 L 980.98 455.02 L 983.88 470.12 L 986.79 510.17 L 989.69 500.58 L 992.60 500.25 L 995.50 434.08 L 998.41 472.67 L 1001.31 491.61 L 1004.22 494.13 L 1007.12 488.40 L 1010.03 468.75 L 1012.93 500.56 L 1015.84 486.23 L 1018.74 508.00 L 1021.65 489.93 L 1024.55 477.50 L 1027.46 489.02 L 1030.36 506.26 L 1033.27 492.39 L 1036.17 460.79 L 1039.08 500.87 L 1041.98 475.11 L 1044.89 494.87 L 1047.79 482.03 L 1050.70 526.51 L 1053.60 497.98 L 1056.51 488.77 L 1059.41 493.45 L 1062.32 489.37 L 1065.22 478.80 L 1068.13 503.10 L 1071.04 479.55 L 1073.94 508.49 L 1076.85 490.10 L 1079.75 503.85 L 1082.66 485.29 L 1085.56 508.39 L 1088.47 494.79 L 1091.37 481.27 L 1094.28 512.83 L 1097.18 527.98 L 1100.09 476.99 L 1102.99 484.74 L 1105.90 500.36 L 1108.80 476.49 L 1111.71 496.92 L 1114.61 485.30 L 1117.52 524.36 L 1120.42 487.01 L 1123.33 500.77 L 1126.23 481.91 L 1129.14 472.47 L 1132.04 495.44 L 1134.95 504.99 L 1137.85 487.06 L 1140.76 525.24 L 1143.66 507.85 L 1146.57 470.23 L 1149.47 491.93 L 1152.38 467.03 L 1155.28 504.74 L 1158.19 504.54 L 1161.09 490.70 L 1164.00 532.60" class="line" stroke="#1f77b4"/>
<path d="M 92.00 583.82 L 94.91 582.97 L 97.81 584.63 L 100.72 584.16 L 103.62 583.24 L 106.53 583.52 L 109.43 584.55 L 112.34 584.09 L 115.24 584.63 L 118.15 584.41 L 121.05 583.51 L 123.96 583.68 L 126.86 584.19 L 129.77 583.86 L 132.67 583.67 L 135.58 584.27 L 138.48 582.49 L 141.39 583.39 L 144.29 584.03 L 147.20 583.89 L 150.10 584.32 L 153.01 584.37 L 155.91 585.53 L 158.82 583.92 L 161.72 584.50 L 164.63 584.69 L 167.53 583.97 L 170.44 584.17 L 173.34 584.33 L 176.25 584.35 L 179.15 584.23 L 182.06 583.83 L 184.96 584.45 L 187.87 584.19 L 190.78 584.82 L 193.68 585.01 L 196.59 583.23 L 199.49 583.27 L 202.40 584.22 L 205.30 585.01 L 208.21 584.22 L 211.11 584.67 L 214.02 584.90 L 216.92 584.72 L 219.83 584.26 L 222.73 584.64 L 225.64 585.17 L 228.54 584.83 L 231.45 585.53 L 234.35 584.94 L 237.26 585.63 L 240.16 584.50 L 243.07 585.17 L 245.97 585.20 L 248.88 585.80 L 251.78 585.32 L 254.69 584.28 L 257.59 585.55 L 260.50 583.99 L 263.40 584.99 L 266.31 586.36 L 269.21 585.80 L 272.12 586.79 L 275.02 585.27 L 277.93 585.65 L 280.83 586.04 L 283.74 586.29 L 286.64 584.91 L 289.55 586.70 L 292.46 585.70 L 295.36 586.23 L 298.27 585.00 L 301.17 586.06 L 304.08 585.18 L 306.98 586.41 L 309.89 586.19 L 312.79 585.93 L 315.70 586.85 L 318.60 585.83 L 321.51 586.48 L 324.41 586.52 L 327.32 584.95 L 330.22 585.30 L 333.13 585.91 L 336.03 586.16 L 338.94 585.39 L 341.84 587.09 L 344.75 585.58 L 347.65 585.66 L 350.56 586.94 L 353.46 585.76 L 356.37 586.75 L 359.27 586.86 L 362.18 586.94 L 365.08 586.55 L 367.99 587.52 L 370.89 587.67 L 373.80 587.48 L 376.70 586.87 L 379.61 587.75 L 382.51 588.28 L 385.42 586.34 L 388.33 588.30 L 391.23 586.84 L 394.14 588.43 L 397.04 587.04 L 399.95 586.63 L 402.85 587.40 L 405.76 587.44 L 408.66 588.21 L 411.57 588.47 L 414.47 588.23 L 417.38 588.06 L 420.28 588.90 L 423.19 588.62 L 426.09 586.23 L 429.00 588.03 L 431.90 586.79 L 434.81 588.88 L 437.71 586.57 L 440.62 587.51 L 443.52 586.14 L 446.43 587.87 L 449.33 588.44 L 452.24 589.04 L 455.14 588.39 L 458.05 588.10 L 460.95 587.48 L 463.86 588.20 L 466.76 586.82 L 469.67 589.32 L 472.57 588.77 L 475.48 588.88 L 478.38 587.54 L 481.29 588.33 L 484.20 589.78 L 487.10 588.52 L 490.01 588.85 L 492.91 588.00 L 495.82 587.57 L 498.72 588.72 L 501.63 588.86 L 504.53 588.65 L 507.44 589.28 L 510.34 589.64 L 513.25 588.26 L 516.15 589.74 L 519.06 589.75 L 521.96 589.18 L 524.87 589.12 L 527.77 588.91 L 530.68 588.02 L 533.58 589.05 L 536.49 590.25 L 539.39 588.95 L 542.30 589.35 L 545.20 589.63 L 548.11 589.31 L 551.01 590.58 L 553.92 590.53 L 556.82 591.16 L 559.73 589.39 L 562.63 590.26 L 565.54 590.09 L 568.44 590.15 L 571.35 591.50 L 574.25 590.37 L 577.16 590.93 L 580.07 590.09 L 582.97 591.53 L 585.88 590.70 L 588.78 590.33 L 591.69 591.06 L 594.59 591.72 L 597.50 590.87 L 600.40 590.21 L 603.31 591.52 L 606.21 591.43 L 609.12 590.51 L 612.02 590.81 L 614.93 591.68 L 617.83 591.58 L 620.74 590.93 L 623.64 591.14 L 626.55 592.72 L 629.45 590.78 L 632.36 592.34 L 635.26 590.62 L 638.17 591.18 L 641.07 592.61 L 643.98 591.53 L 646.88 592.26 L 649.79 588.51 L 652.69 591.92 L 655.60 591.88 L 658.50 590.60 L 661.41 593.49 L 664.31 591.60 L 667.22 592.40 L 670.12 592.34 L 673.03 592.39 L 675.93 590.94 L 678.84 592.78 L 681.75 591.90 L 684.65 593.35 L 687.56 592.20 L 690.46 593.05 L 693.37 593.05 L 696.27 593.35 L 699.18 592.07 L 702.08 593.79 L 704.99 592.40 L 707.89 592.14 L 710.80 593.29 L 713.70 593.85 L 716.61 593.96 L 719.51 591.87 L 722.42 592.60 L 725.32 593.08 L 728.23 593.56 L 731.13 594.02 L 734.04 591.63 L 736.94 593.74 L 739.85 594.50 L 742.75 592.43 L 745.66 593.78 L 748.56 593.45 L 751.47 593.40 L 754.37 592.97 L 757.28 594.84 L 760.18 592.89 L 763.09 593.24 L 765.99 594.86 L 768.90 592.13 L 771.80 593.80 L 774.71 594.81 L 777.62 594.15 L 780.52 594.87 L 783.43 594.18 L 786.33 594.82 L 789.24 594.42 L 792.14 593.93 L 795.05 594.91 L 797.95 594.83 L 800.86 593.78 L 803.76 595.11 L 806.67 593.80 L 809.57 594.97 L 812.48 594.60 L 815.38 596.70 L 818.29 593.41 L 821.19 594.92 L 824.10 596.55 L 827.00 594.61 L 829.91 595.75 L 832.81 594.50 L 835.72 595.06 L 838.62 594.27 L 841.53 595.02 L 844.43 596.46 L 847.34 595.99 L 850.24 594.27 L 853.15 596.40 L 856.05 595.36 L 858.96 595.30 L 861.86 594.29 L 864.77 597.00 L 867.67 596.82 L 870.58 596.11 L 873.49 596.04 L 876.39 596.41 L 879.30 595.84 L 882.20 595.32 L 885.11 596.13 L 888.01 598.07 L 890.92 594.60 L 893.82 596.06 L 896.73 596.52 L 899.63 596.23 L 902.54 595.60 L 905.44 596.39 L 908.35 595.71 L 911.25 597.70 L 914.16 596.24 L 917.06 595.55 L 919.97 597.28 L 922.87 596.84 L 925.78 597.17 L 928.68 596.40 L 931.59 596.98 L 934.49 595.28 L 937.40 597.78 L 940.30 596.02 L 943.21 596.85 L 946.11 595.60 L 949.02 597.90 L 951.92 597.35 L 954.83 597.81 L 957.73 596.53 L 960.64 596.23 L 963.54 597.60 L 966.45 597.47 L 969.36 599.07 L 972.26 598.04 L 975.17 596.96 L 978.07 596.33 L 980.98 596.85 L 983.88 598.26 L 986.79 597.33 L 989.69 597.93 L 992.60 597.72 L 995.50 597.30 L 998.41 597.26 L 1001.31 596.74 L 1004.22 597.90 L 1007.12 598.29 L 1010.03 598.33 L 1012.93 597.96 L 1015.84 597.24 L 1018.74 599.29 L 1021.65 598.60 L 1024.55 595.87 L 1027.46 598.41 L 1030.36 599.15 L 1033.27 599.61 L 1036.17 597.21 L 1039.08 596.37 L 1041.98 597.93 L 1044.89 598.65 L 1047.79 598.78 L 1050.70 597.94 L 1053.60 598.29 L 1056.51 598.47 L 1059.41 598.19 L 1062.32 600.07 L 1065.22 598.09 L 1068.13 598.39 L 1071.04 599.05 L 1073.94 599.35 L 1076.85 598.43 L 1079.75 598.53 L 1082.66 599.18 L 1085.56 600.77 L 1088.47 598.18 L 1091.37 598.09 L 1094.28 599.59 L 1097.18 600.09 L 1100.09 598.79 L 1102.99 599.30 L 1105.90 598.24 L 1108.80 598.43 L 1111.71 599.81 L 1114.61 597.92 L 1117.52 599.83 L 1120.42 599.14 L 1123.33 600.29 L 1126.23 599.71 L 1129.14 599.47 L 1132.04 599.89 L 1134.95 600.67 L 1137.85 599.63 L 1140.76 599.42 L 1143.66 600.91 L 1146.57 599.22 L 1149.47 600.62 L 1152.38 600.66 L 1155.28 600.80 L 1158.19 600.07 L 1161.09 600.77 L 1164.00 600.32" class="line" stroke="#d62728"/>
<path d="M 92.00 192.90 L 94.91 248.22 L 97.81 290.25 L 100.72 229.14 L 103.62 253.98 L 106.53 285.04 L 109.43 295.42 L 112.34 219.48 L 115.24 314.11 L 118.15 211.61 L 121.05 226.66 L 123.96 276.14 L 126.86 318.33 L 129.77 273.92 L 132.67 246.85 L 135.58 324.01 L 138.48 200.14 L 141.39 289.34 L 144.29 120.44 L 147.20 282.03 L 150.10 304.08 L 153.01 359.68 L 155.91 356.27 L 158.82 301.40 L 161.72 328.14 L 164.63 302.92 L 167.53 294.93 L 170.44 280.98 L 173.34 302.78 L 176.25 329.66 L 179.15 203.37 L 182.06 290.47 L 184.96 277.05 L 187.87 334.55 L 190.78 320.56 L 193.68 256.89 L 196.59 139.93 L 199.49 314.55 L 202.40 301.05 L 205.30 266.33 L 208.21 294.80 L 211.11 369.35 L 214.02 323.07 L 216.92 295.80 L 219.83 316.38 L 222.73 274.22 L 225.64 264.40 L 228.54 230.77 L 231.45 314.20 L 234.35 346.10 L 237.26 290.22 L 240.16 300.27 L 243.07 262.81 L 245.97 419.86 L 248.88 303.74 L 251.78 316.64 L 254.69 228.98 L 257.59 251.66 L 260.50 252.19 L 263.40 215.22 L 266.31 207.53 L 269.21 367.01 L 272.12 252.62 L 275.02 293.63 L 277.93 334.60 L 280.83 330.48 L 283.74 272.41 L 286.64 282.79 L 289.55 300.50 L 292.46 268.44 L 295.36 332.22 L 298.27 295.95 L 301.17 376.01 L 304.08 327.08 L 306.98 405.20 L 309.89 353.67 L 312.79 257.24 L 315.70 279.83 L 318.60 263.74 L 321.51 312.62 L 324.41 317.93 L 327.32 265.02 L 330.22 294.87 L 333.13 308.43 L 336.03 276.52 L 338.94 224.86 L 341.84 338.34 L 344.75 262.89 L 347.65 294.98 L 350.56 334.55 L 353.46 320.17 L 356.37 359.94 L 359.27 270.38 L 362.18 318.32 L 365.08 300.44 L 367.99 325.52 L 370.89 280.72 L 373.80 240.00 L 376.70 386.35 L 379.61 391.58 L 382.51 380.13 L 385.42 308.41 L 388.33 371.93 L 391.23 333.96 L 394.14 311.23 L 397.04 341.92 L 399.95 243.85 L 402.85 319.50 L 405.76 384.90 L 408.66 236.56 L 411.57 267.78 L 414.47 345.77 L 417.38 358.85 L 420.28 326.14 L 423.19 371.47 L 426.09 349.90 L 429.00 316.24 L 431.90 251.30 L 434.81 286.63 L 437.71 311.58 L 440.62 384.21 L 443.52 352.94 L 446.43 359.02 L 449.33 339.45 L 452.24 377.20 L 455.14 399.44 L 458.05 359.26 L 460.95 245.15 L 463.86 284.54 L 466.76 279.24 L 469.67 407.37 L 472.57 354.59 L 475.48 388.75 L 478.38 312.52 L 481.29 371.54 L 484.20 306.39 L 487.10 379.41 L 490.01 341.40 L 492.91 368.73 L 495.82 223.16 L 498.72 334.94 L 501.63 323.92 L 504.53 297.25 L 507.44 290.05 L 510.34 378.48 L 513.25 282.77 L 516.15 364.47 L 519.06 347.05 L 521.96 366.00 L 524.87 306.29 L 527.77 378.03 L 530.68 330.86 L 533.58 309.89 L 536.49 331.85 L 539.39 374.21 L 542.30 418.59 L 545.20 311.23 L 548.11 444.26 L 551.01 349.54 L 553.92 380.36 L 556.82 376.06 L 559.73 299.36 L 562.63 359.07 L 565.54 297.37 L 568.44 265.41 L 571.35 364.69 L 574.25 302.66 L 577.16 406.79 L 580.07 343.95 L 582.97 389.07 L 585.88 371.41 L 588.78 294.08 L 591.69 305.57 L 594.59 311.57 L 597.50 334.20 L 600.40 265.84 L 603.31 415.17 L 606.21 390.91 L 609.12 338.05 L 612.02 321.94 L 614.93 339.22 L 617.83 342.58 L 620.74 319.93 L 623.64 356.89 L 626.55 401.24 L 629.45 333.51 L 632.36 343.69 L 635.26 423.78 L 638.17 285.44 L 641.07 412.40 L 643.98 335.82 L 646.88 411.14 L 649.79 394.58 L 652.69 355.37 L 655.60 312.97 L 658.50 303.85 L 661.41 329.09 L 664.31 379.67 L 667.22 375.62 L 670.12 402.48 L 673.03 418.64 L 675.93 387.46 L 678.84 384.90 L 681.75 427.04 L 684.65 425.01 L 687.56 355.96 L 690.46 406.61 L 693.37 348.99 L 696.27 370.52 L 699.18 381.98 L 702.08 316.48 L 704.99 361.69 L 707.89 397.52 L 710.80 337.92 L 713.70 376.32 L 716.61 348.13 L 719.51 306.78 L 722.42 420.64 L 725.32 324.97 L 728.23 390.20 L 731.13 380.58 L 734.04 333.66 L 736.94 436.26 L 739.85 417.88 L 742.75 388.72 L 745.66 413.91 L 748.56 389.18 L 751.47 398.58 L 754.37 409.73 L 757.28 434.04 L 760.18 294.86 L 763.09 432.90 L 765.99 382.43 L 768.90 288.17 L 771.80 391.12 L 774.71 418.07 L 777.62 375.06 L 780.52 417.20 L 783.43 269.36 L 786.33 382.06 L 789.24 367.60 L 792.14 418.59 L 795.05 418.72 L 797.95 437.94 L 800.86 328.61 L 803.76 377.92 L 806.67 364.38 L 809.57 414.67 L 812.48 378.84 L 815.38 382.62 L 818.29 411.11 L 821.19 414.44 L 824.10 424.50 L 827.00 371.46 L 829.91 381.57 L 832.81 396.55 L 835.72 389.19 L 838.62 446.61 L 841.53 369.55 L 844.43 417.22 L 847.34 415.01 L 850.24 381.25 L 853.15 389.66 L 856.05 432.66 L 858.96 336.28 L 861.86 388.38 L 864.77 424.79 L 867.67 407.88 L 870.58 309.11 L 873.49 438.04 L 876.39 412.21 L 879.30 298.92 L 882.20 347.58 L 885.11 482.19 L 888.01 418.87 L 890.92 324.48 L 893.82 410.30 L 896.73 436.52 L 899.63 426.50 L 902.54 386.61 L 905.44 463.57 L 908.35 358.43 L 911.25 378.71 L 914.16 355.82 L 917.06 382.24 L 919.97 336.22 L 922.87 447.21 L 925.78 397.37 L 928.68 414.08 L 931.59 385.67 L 934.49 422.24 L 937.40 406.69 L 940.30 460.02 L 943.21 369.10 L 946.11 388.41 L 949.02 429.14 L 951.92 449.24 L 954.83 465.79 L 957.73 407.97 L 960.64 439.04 L 963.54 458.63 L 966.45 376.87 L 969.36 446.23 L 972.26 421.90 L 975.17 361.30 L 978.07 321.22 L 980.98 348.33 L 983.88 375.73 L 986.79 457.69 L 989.69 437.29 L 992.60 437.08 L 995.50 305.57 L 998.41 382.82 L 1001.31 421.75 L 1004.22 424.46 L 1007.12 412.22 L 1010.03 372.84 L 1012.93 437.20 L 1015.84 409.97 L 1018.74 449.43 L 1021.65 414.66 L 1024.55 395.26 L 1027.46 413.24 L 1030.36 446.22 L 1033.27 417.56 L 1036.17 359.16 L 1039.08 440.99 L 1041.98 386.37 L 1044.89 424.43 L 1047.79 398.48 L 1050.70 489.13 L 1053.60 431.37 L 1056.51 412.61 L 1059.41 422.51 L 1062.32 410.60 L 1065.22 393.41 L 1068.13 441.43 L 1071.04 393.01 L 1073.94 450.29 L 1076.85 415.34 L 1079.75 442.64 L 1082.66 404.22 L 1085.56 447.23 L 1088.47 425.21 L 1091.37 398.37 L 1094.28 458.48 L 1097.18 487.78 L 1100.09 388.39 L 1102.99 402.90 L 1105.90 436.24 L 1108.80 388.12 L 1111.71 426.21 L 1114.61 406.76 L 1117.52 481.04 L 1120.42 407.72 L 1123.33 432.95 L 1126.23 396.40 L 1129.14 377.98 L 1132.04 423.10 L 1134.95 440.64 L 1137.85 406.85 L 1140.76 483.63 L 1143.66 445.86 L 1146.57 374.02 L 1149.47 414.63 L 1152.38 364.74 L 1155.28 439.88 L 1158.19 440.93 L 1161.09 411.87 L 1164.00 496.56" class="line" stroke="#2ca02c"/>
<line x1="904" y1="94" x2="939" y2="94" stroke="#1f77b4" stroke-width="3" stroke-linecap="round"/>
<text x="949" y="99" class="legend">train loss</text>
<line x1="904" y1="119" x2="939" y2="119" stroke="#d62728" stroke-width="3" stroke-linecap="round"/>
<text x="949" y="124" class="legend">field loss</text>
<line x1="904" y1="144" x2="939" y2="144" stroke="#2ca02c" stroke-width="3" stroke-linecap="round"/>
<text x="949" y="149" class="legend">surface p loss</text>
<text x="92" y="712" class="note">Source: logs/e02r1n06_paper_aligned_train_eval.log; earlier failed/restarted segments are excluded.</text>
</svg>