<svg xmlns="http://www.w3.org/2000/svg" width="1200" height="720" viewBox="0 0 1200 720" role="img" aria-label="Training loss trend">
<rect width="100%" height="100%" fill="#ffffff"/>
<style>text{font-family:Arial,Helvetica,sans-serif;fill:#1f2937}.title{font-size:28px;font-weight:700}.subtitle{font-size:15px;fill:#4b5563}.axis{stroke:#111827;stroke-width:1.5}.grid{stroke:#e5e7eb;stroke-width:1}.tick{font-size:13px;fill:#4b5563}.legend{font-size:15px}.note{font-size:13px;fill:#374151}.line{fill:none;stroke-width:3;stroke-linejoin:round;stroke-linecap:round}</style>
<text x="92" y="36" class="title">Functional Attention AirfRANS Training Loss Trend</text>
<text x="92" y="61" class="subtitle">Source: weight/train_reynolds.log, epochs 1-394; total loss best at epoch 368 (1.419842)</text>
<line x1="92" y1="628.00" x2="1166" y2="628.00" class="grid"/>
<text x="80" y="632.00" text-anchor="end" class="tick">0.27</text>
<line x1="92" y1="518.00" x2="1166" y2="518.00" class="grid"/>
<text x="80" y="522.00" text-anchor="end" class="tick">0.63</text>
<line x1="92" y1="408.00" x2="1166" y2="408.00" class="grid"/>
<text x="80" y="412.00" text-anchor="end" class="tick">1.00</text>
<line x1="92" y1="298.00" x2="1166" y2="298.00" class="grid"/>
<text x="80" y="302.00" text-anchor="end" class="tick">1.37</text>
<line x1="92" y1="188.00" x2="1166" y2="188.00" class="grid"/>
<text x="80" y="192.00" text-anchor="end" class="tick">1.74</text>
<line x1="92" y1="78.00" x2="1166" y2="78.00" class="grid"/>
<text x="80" y="82.00" text-anchor="end" class="tick">2.11</text>
<line x1="92.00" y1="78" x2="92.00" y2="628" class="grid"/>
<text x="92.00" y="654" text-anchor="middle" class="tick">1</text>
<line x1="225.91" y1="78" x2="225.91" y2="628" class="grid"/>
<text x="225.91" y="654" text-anchor="middle" class="tick">50</text>
<line x1="362.55" y1="78" x2="362.55" y2="628" class="grid"/>
<text x="362.55" y="654" text-anchor="middle" class="tick">100</text>
<line x1="499.19" y1="78" x2="499.19" y2="628" class="grid"/>
<text x="499.19" y="654" text-anchor="middle" class="tick">150</text>
<line x1="635.83" y1="78" x2="635.83" y2="628" class="grid"/>
<text x="635.83" y="654" text-anchor="middle" class="tick">200</text>
<line x1="772.47" y1="78" x2="772.47" y2="628" class="grid"/>
<text x="772.47" y="654" text-anchor="middle" class="tick">250</text>
<line x1="909.11" y1="78" x2="909.11" y2="628" class="grid"/>
<text x="909.11" y="654" text-anchor="middle" class="tick">300</text>
<line x1="1045.76" y1="78" x2="1045.76" y2="628" class="grid"/>
<text x="1045.76" y="654" text-anchor="middle" class="tick">350</text>
<line x1="1166.00" y1="78" x2="1166.00" y2="628" class="grid"/>
<text x="1166.00" y="654" text-anchor="middle" class="tick">394</text>
<line x1="92" y1="628" x2="1166" y2="628" class="axis"/>
<line x1="92" y1="78" x2="92" y2="628" class="axis"/>
<text x="629.00" y="692" text-anchor="middle" class="tick">Epoch</text>
<text x="24" y="353.00" text-anchor="middle" class="tick" transform="rotate(-90 24 353.00)">Loss</text>
<path d="M 92.00 115.93 L 94.73 196.66 L 97.47 214.73 L 100.20 221.55 L 102.93 222.22 L 105.66 215.05 L 108.40 217.95 L 111.13 224.16 L 113.86 231.02 L 116.60 247.39 L 119.33 241.88 L 122.06 231.62 L 124.79 212.17 L 127.53 222.75 L 130.26 222.47 L 132.99 229.15 L 135.73 228.47 L 138.46 231.72 L 141.19 236.85 L 143.92 239.07 L 146.66 237.66 L 149.39 243.98 L 152.12 250.29 L 154.85 251.18 L 157.59 233.74 L 160.32 225.41 L 163.05 234.96 L 165.79 232.36 L 168.52 240.25 L 171.25 231.57 L 173.98 235.33 L 176.72 244.84 L 179.45 241.38 L 182.18 246.96 L 184.92 244.86 L 187.65 246.25 L 190.38 250.07 L 193.11 251.48 L 195.85 251.68 L 198.58 249.70 L 201.31 228.94 L 204.05 228.94 L 206.78 240.32 L 209.51 231.81 L 212.24 233.34 L 214.98 234.19 L 217.71 241.13 L 220.44 238.36 L 223.18 246.00 L 225.91 248.78 L 228.64 250.27 L 231.37 227.01 L 234.11 239.82 L 236.84 245.97 L 239.57 251.75 L 242.31 246.51 L 245.04 257.91 L 247.77 255.54 L 250.50 254.31 L 253.24 256.28 L 255.97 250.01 L 258.70 250.06 L 261.44 250.68 L 264.17 250.68 L 266.90 253.16 L 269.63 248.57 L 272.37 250.88 L 275.10 248.79 L 277.83 242.47 L 280.56 247.74 L 283.30 242.37 L 286.03 251.25 L 288.76 256.14 L 291.50 259.48 L 294.23 263.90 L 296.96 264.97 L 299.69 264.62 L 302.43 263.66 L 305.16 257.91 L 307.89 256.10 L 310.63 257.10 L 313.36 256.84 L 316.09 257.22 L 318.82 257.49 L 321.56 260.70 L 324.29 259.04 L 327.02 261.45 L 329.76 261.22 L 332.49 258.21 L 335.22 255.40 L 337.95 256.67 L 340.69 256.05 L 343.42 258.16 L 346.15 259.63 L 348.89 257.96 L 351.62 252.92 L 354.35 255.33 L 357.08 253.66 L 359.82 254.37 L 362.55 242.07 L 365.28 243.52 L 368.02 258.22 L 370.75 261.98 L 373.48 261.09 L 376.21 262.53 L 378.95 262.00 L 381.68 267.87 L 384.41 269.36 L 387.15 268.65 L 389.88 269.32 L 392.61 272.74 L 395.34 274.12 L 398.08 275.89 L 400.81 272.98 L 403.54 276.27 L 406.27 278.65 L 409.01 276.93 L 411.74 275.54 L 414.47 276.95 L 417.21 276.31 L 419.94 263.48 L 422.67 268.76 L 425.40 270.71 L 428.14 270.11 L 430.87 271.64 L 433.60 273.88 L 436.34 275.69 L 439.07 273.03 L 441.80 275.20 L 444.53 272.21 L 447.27 273.96 L 450.00 273.31 L 452.73 272.38 L 455.47 273.24 L 458.20 272.19 L 460.93 267.91 L 463.66 266.84 L 466.40 266.37 L 469.13 267.12 L 471.86 268.89 L 474.60 262.97 L 477.33 266.84 L 480.06 262.40 L 482.79 264.71 L 485.53 267.74 L 488.26 267.79 L 490.99 267.05 L 493.73 268.07 L 496.46 267.99 L 499.19 268.76 L 501.92 272.85 L 504.66 267.39 L 507.39 261.48 L 510.12 266.41 L 512.85 266.66 L 515.59 257.05 L 518.32 257.47 L 521.05 265.14 L 523.79 248.04 L 526.52 247.03 L 529.25 248.17 L 531.98 250.55 L 534.72 253.78 L 537.45 256.47 L 540.18 255.57 L 542.92 255.62 L 545.65 246.69 L 548.38 248.31 L 551.11 253.88 L 553.85 257.63 L 556.58 255.65 L 559.31 253.78 L 562.05 260.60 L 564.78 258.74 L 567.51 261.87 L 570.24 262.10 L 572.98 259.23 L 575.71 261.03 L 578.44 260.97 L 581.18 259.74 L 583.91 259.35 L 586.64 260.01 L 589.37 256.94 L 592.11 258.63 L 594.84 259.78 L 597.57 255.33 L 600.31 256.21 L 603.04 258.03 L 605.77 258.40 L 608.50 255.14 L 611.24 257.51 L 613.97 254.65 L 616.70 250.15 L 619.44 253.03 L 622.17 252.63 L 624.90 252.63 L 627.63 258.45 L 630.37 256.66 L 633.10 256.61 L 635.83 256.08 L 638.56 257.21 L 641.30 260.30 L 644.03 258.24 L 646.76 260.09 L 649.50 255.30 L 652.23 256.27 L 654.96 258.44 L 657.69 261.84 L 660.43 262.27 L 663.16 264.77 L 665.89 265.68 L 668.63 264.66 L 671.36 264.50 L 674.09 266.39 L 676.82 264.49 L 679.56 266.45 L 682.29 264.26 L 685.02 262.73 L 687.76 263.79 L 690.49 265.68 L 693.22 265.55 L 695.95 264.04 L 698.69 266.64 L 701.42 266.47 L 704.15 265.85 L 706.89 267.21 L 709.62 265.66 L 712.35 270.42 L 715.08 268.41 L 717.82 267.06 L 720.55 269.26 L 723.28 268.18 L 726.02 268.30 L 728.75 269.33 L 731.48 267.75 L 734.21 268.64 L 736.95 266.77 L 739.68 266.24 L 742.41 266.30 L 745.15 265.33 L 747.88 265.61 L 750.61 268.24 L 753.34 269.71 L 756.08 266.68 L 758.81 267.30 L 761.54 270.51 L 764.27 270.16 L 767.01 267.89 L 769.74 266.01 L 772.47 265.68 L 775.21 267.69 L 777.94 266.34 L 780.67 268.11 L 783.40 267.17 L 786.14 268.05 L 788.87 264.62 L 791.60 265.49 L 794.34 264.99 L 797.07 264.16 L 799.80 263.62 L 802.53 263.36 L 805.27 263.41 L 808.00 266.18 L 810.73 263.39 L 813.47 265.89 L 816.20 261.25 L 818.93 263.46 L 821.66 262.61 L 824.40 263.51 L 827.13 262.97 L 829.86 262.28 L 832.60 262.71 L 835.33 257.73 L 838.06 253.12 L 840.79 251.56 L 843.53 249.90 L 846.26 259.16 L 848.99 265.59 L 851.73 261.44 L 854.46 265.25 L 857.19 267.58 L 859.92 262.72 L 862.66 263.41 L 865.39 268.71 L 868.12 271.17 L 870.85 275.53 L 873.59 275.10 L 876.32 269.39 L 879.05 271.25 L 881.79 272.01 L 884.52 267.55 L 887.25 274.45 L 889.98 276.63 L 892.72 273.89 L 895.45 275.59 L 898.18 240.12 L 900.92 247.39 L 903.65 250.84 L 906.38 252.80 L 909.11 249.04 L 911.85 247.73 L 914.58 249.69 L 917.31 249.06 L 920.05 248.90 L 922.78 252.78 L 925.51 253.57 L 928.24 254.89 L 930.98 253.08 L 933.71 244.42 L 936.44 249.70 L 939.18 251.20 L 941.91 254.64 L 944.64 258.50 L 947.37 264.74 L 950.11 265.86 L 952.84 268.06 L 955.57 266.48 L 958.31 263.74 L 961.04 268.68 L 963.77 269.48 L 966.50 270.33 L 969.24 266.38 L 971.97 267.81 L 974.70 270.86 L 977.44 273.36 L 980.17 271.35 L 982.90 275.03 L 985.63 274.39 L 988.37 273.27 L 991.10 270.81 L 993.83 272.97 L 996.56 274.69 L 999.30 275.25 L 1002.03 278.30 L 1004.76 276.38 L 1007.50 277.54 L 1010.23 277.38 L 1012.96 277.85 L 1015.69 277.82 L 1018.43 278.79 L 1021.16 279.33 L 1023.89 279.63 L 1026.63 280.75 L 1029.36 280.75 L 1032.09 278.79 L 1034.82 280.12 L 1037.56 282.09 L 1040.29 280.88 L 1043.02 277.64 L 1045.76 278.31 L 1048.49 275.03 L 1051.22 273.01 L 1053.95 259.80 L 1056.69 259.23 L 1059.42 255.71 L 1062.15 262.57 L 1064.89 267.55 L 1067.62 268.30 L 1070.35 262.19 L 1073.08 264.66 L 1075.82 264.52 L 1078.55 267.28 L 1081.28 272.87 L 1084.02 275.51 L 1086.75 278.07 L 1089.48 280.09 L 1092.21 278.59 L 1094.95 284.01 L 1097.68 279.52 L 1100.41 281.03 L 1103.15 281.73 L 1105.88 281.74 L 1108.61 280.22 L 1111.34 280.00 L 1114.08 272.24 L 1116.81 274.58 L 1119.54 274.70 L 1122.27 273.70 L 1125.01 275.35 L 1127.74 275.88 L 1130.47 278.53 L 1133.21 275.22 L 1135.94 257.59 L 1138.67 259.91 L 1141.40 262.10 L 1144.14 263.08 L 1146.87 263.72 L 1149.60 266.82 L 1152.34 267.88 L 1155.07 266.60 L 1157.80 267.07 L 1160.53 268.52 L 1163.27 267.72 L 1166.00 267.70" class="line" stroke="#1f77b4"/>
<path d="M 92.00 361.18 L 94.73 381.86 L 97.47 388.20 L 100.20 389.27 L 102.93 389.65 L 105.66 380.03 L 108.40 380.57 L 111.13 381.98 L 113.86 388.04 L 116.60 393.10 L 119.33 390.55 L 122.06 382.65 L 124.79 384.69 L 127.53 389.98 L 130.26 384.10 L 132.99 384.24 L 135.73 386.93 L 138.46 391.02 L 141.19 390.71 L 143.92 390.03 L 146.66 389.58 L 149.39 392.01 L 152.12 393.50 L 154.85 392.61 L 157.59 384.02 L 160.32 383.04 L 163.05 385.97 L 165.79 391.04 L 168.52 391.65 L 171.25 386.86 L 173.98 387.41 L 176.72 392.05 L 179.45 389.19 L 182.18 393.95 L 184.92 391.94 L 187.65 392.52 L 190.38 393.51 L 193.11 395.12 L 195.85 394.58 L 198.58 394.17 L 201.31 387.91 L 204.05 384.55 L 206.78 389.26 L 209.51 384.13 L 212.24 386.45 L 214.98 390.75 L 217.71 392.06 L 220.44 388.69 L 223.18 393.98 L 225.91 395.87 L 228.64 395.14 L 231.37 385.76 L 234.11 391.89 L 236.84 391.01 L 239.57 393.26 L 242.31 386.60 L 245.04 394.49 L 247.77 393.04 L 250.50 392.98 L 253.24 394.60 L 255.97 389.99 L 258.70 389.76 L 261.44 390.22 L 264.17 390.60 L 266.90 392.04 L 269.63 387.82 L 272.37 389.98 L 275.10 389.29 L 277.83 389.07 L 280.56 392.78 L 283.30 389.72 L 286.03 394.11 L 288.76 397.28 L 291.50 395.13 L 294.23 397.56 L 296.96 397.61 L 299.69 398.34 L 302.43 397.42 L 305.16 396.61 L 307.89 395.27 L 310.63 395.11 L 313.36 395.55 L 316.09 393.89 L 318.82 394.35 L 321.56 396.27 L 324.29 395.21 L 327.02 396.77 L 329.76 397.36 L 332.49 395.51 L 335.22 394.81 L 337.95 395.14 L 340.69 394.57 L 343.42 395.17 L 346.15 396.63 L 348.89 395.22 L 351.62 394.13 L 354.35 395.10 L 357.08 393.05 L 359.82 393.67 L 362.55 389.13 L 365.28 392.84 L 368.02 395.39 L 370.75 398.58 L 373.48 397.21 L 376.21 399.53 L 378.95 401.46 L 381.68 404.59 L 384.41 404.00 L 387.15 403.40 L 389.88 403.27 L 392.61 405.52 L 395.34 405.87 L 398.08 407.48 L 400.81 404.67 L 403.54 407.31 L 406.27 407.23 L 409.01 406.47 L 411.74 406.89 L 414.47 407.63 L 417.21 406.97 L 419.94 401.76 L 422.67 403.17 L 425.40 402.56 L 428.14 403.43 L 430.87 403.36 L 433.60 404.20 L 436.34 405.26 L 439.07 403.32 L 441.80 404.75 L 444.53 403.11 L 447.27 404.83 L 450.00 403.19 L 452.73 403.46 L 455.47 403.17 L 458.20 401.93 L 460.93 401.86 L 463.66 401.05 L 466.40 400.39 L 469.13 401.80 L 471.86 401.99 L 474.60 399.14 L 477.33 401.85 L 480.06 400.55 L 482.79 400.30 L 485.53 401.31 L 488.26 401.51 L 490.99 400.99 L 493.73 401.09 L 496.46 402.00 L 499.19 402.35 L 501.92 403.13 L 504.66 402.19 L 507.39 397.35 L 510.12 394.92 L 512.85 396.54 L 515.59 390.77 L 518.32 390.63 L 521.05 394.89 L 523.79 387.42 L 526.52 387.82 L 529.25 390.63 L 531.98 393.34 L 534.72 392.74 L 537.45 394.16 L 540.18 394.31 L 542.92 393.30 L 545.65 387.51 L 548.38 391.62 L 551.11 393.27 L 553.85 396.30 L 556.58 395.00 L 559.31 392.63 L 562.05 396.76 L 564.78 395.93 L 567.51 397.48 L 570.24 396.74 L 572.98 396.47 L 575.71 395.65 L 578.44 395.21 L 581.18 395.24 L 583.91 394.30 L 586.64 394.36 L 589.37 393.40 L 592.11 394.30 L 594.84 394.57 L 597.57 391.39 L 600.31 393.50 L 603.04 393.73 L 605.77 394.19 L 608.50 393.11 L 611.24 394.74 L 613.97 392.92 L 616.70 391.62 L 619.44 395.08 L 622.17 393.01 L 624.90 393.34 L 627.63 396.83 L 630.37 395.16 L 633.10 395.33 L 635.83 395.05 L 638.56 394.05 L 641.30 395.87 L 644.03 395.92 L 646.76 397.83 L 649.50 395.19 L 652.23 393.76 L 654.96 392.96 L 657.69 394.68 L 660.43 395.24 L 663.16 396.56 L 665.89 396.96 L 668.63 396.05 L 671.36 396.03 L 674.09 396.35 L 676.82 396.18 L 679.56 397.21 L 682.29 396.21 L 685.02 395.65 L 687.76 397.10 L 690.49 397.64 L 693.22 396.94 L 695.95 396.83 L 698.69 398.35 L 701.42 398.75 L 704.15 397.68 L 706.89 398.55 L 709.62 398.21 L 712.35 400.45 L 715.08 399.05 L 717.82 398.66 L 720.55 398.97 L 723.28 398.88 L 726.02 398.84 L 728.75 399.58 L 731.48 397.41 L 734.21 399.85 L 736.95 397.57 L 739.68 396.44 L 742.41 398.03 L 745.15 397.07 L 747.88 397.60 L 750.61 398.38 L 753.34 399.15 L 756.08 397.72 L 758.81 397.10 L 761.54 399.57 L 764.27 398.35 L 767.01 397.95 L 769.74 396.29 L 772.47 397.63 L 775.21 397.70 L 777.94 397.10 L 780.67 397.73 L 783.40 397.88 L 786.14 398.11 L 788.87 396.48 L 791.60 395.38 L 794.34 396.16 L 797.07 395.42 L 799.80 396.20 L 802.53 394.85 L 805.27 395.10 L 808.00 396.67 L 810.73 394.08 L 813.47 395.12 L 816.20 393.87 L 818.93 394.78 L 821.66 393.82 L 824.40 395.26 L 827.13 395.82 L 829.86 394.60 L 832.60 394.16 L 835.33 392.99 L 838.06 395.54 L 840.79 391.19 L 843.53 391.51 L 846.26 394.25 L 848.99 396.39 L 851.73 395.40 L 854.46 396.65 L 857.19 397.80 L 859.92 394.03 L 862.66 398.01 L 865.39 399.55 L 868.12 399.83 L 870.85 401.63 L 873.59 402.10 L 876.32 399.51 L 879.05 403.19 L 881.79 404.05 L 884.52 401.58 L 887.25 404.39 L 889.98 405.02 L 892.72 404.15 L 895.45 405.08 L 898.18 387.48 L 900.92 389.62 L 903.65 391.94 L 906.38 391.81 L 909.11 389.89 L 911.85 390.43 L 914.58 392.24 L 917.31 391.14 L 920.05 391.93 L 922.78 392.82 L 925.51 392.31 L 928.24 392.99 L 930.98 391.60 L 933.71 390.26 L 936.44 391.25 L 939.18 392.30 L 941.91 392.99 L 944.64 392.56 L 947.37 394.59 L 950.11 394.97 L 952.84 396.51 L 955.57 395.02 L 958.31 391.97 L 961.04 394.22 L 963.77 394.52 L 966.50 394.96 L 969.24 393.71 L 971.97 395.44 L 974.70 397.39 L 977.44 397.93 L 980.17 396.69 L 982.90 398.55 L 985.63 397.22 L 988.37 397.43 L 991.10 395.69 L 993.83 397.47 L 996.56 396.97 L 999.30 398.11 L 1002.03 399.06 L 1004.76 398.27 L 1007.50 399.06 L 1010.23 398.82 L 1012.96 398.99 L 1015.69 399.99 L 1018.43 401.40 L 1021.16 400.47 L 1023.89 400.57 L 1026.63 400.87 L 1029.36 401.68 L 1032.09 400.86 L 1034.82 401.23 L 1037.56 402.58 L 1040.29 402.20 L 1043.02 400.10 L 1045.76 400.88 L 1048.49 397.59 L 1051.22 397.98 L 1053.95 395.14 L 1056.69 394.51 L 1059.42 392.65 L 1062.15 395.48 L 1064.89 397.11 L 1067.62 396.90 L 1070.35 395.14 L 1073.08 395.97 L 1075.82 396.37 L 1078.55 396.96 L 1081.28 398.72 L 1084.02 399.15 L 1086.75 399.64 L 1089.48 399.64 L 1092.21 399.91 L 1094.95 401.18 L 1097.68 399.81 L 1100.41 399.92 L 1103.15 400.01 L 1105.88 400.43 L 1108.61 400.11 L 1111.34 399.74 L 1114.08 396.21 L 1116.81 397.15 L 1119.54 396.91 L 1122.27 397.45 L 1125.01 398.30 L 1127.74 397.49 L 1130.47 398.55 L 1133.21 396.95 L 1135.94 392.22 L 1138.67 392.38 L 1141.40 392.40 L 1144.14 393.62 L 1146.87 393.89 L 1149.60 393.94 L 1152.34 394.71 L 1155.07 393.95 L 1157.80 394.67 L 1160.53 395.69 L 1163.27 395.13 L 1166.00 395.43" class="line" stroke="#d62728"/>
<path d="M 92.00 461.99 L 94.73 522.03 L 97.47 533.77 L 100.20 539.52 L 102.93 539.81 L 105.66 542.25 L 108.40 544.61 L 111.13 549.42 L 113.86 550.22 L 116.60 561.52 L 119.33 558.57 L 122.06 556.20 L 124.79 534.72 L 127.53 540.01 L 130.26 545.60 L 132.99 552.15 L 135.73 548.78 L 138.46 547.94 L 141.19 553.38 L 143.92 556.28 L 146.66 555.31 L 149.39 559.20 L 152.12 564.03 L 154.85 565.80 L 157.59 556.95 L 160.32 549.61 L 163.05 556.22 L 165.79 548.56 L 168.52 555.83 L 171.25 551.95 L 173.98 555.15 L 176.72 560.03 L 179.45 559.42 L 182.18 560.25 L 184.92 560.15 L 187.65 560.96 L 190.38 563.80 L 193.11 563.59 L 195.85 564.33 L 198.58 562.77 L 201.31 548.27 L 204.05 551.63 L 206.78 558.30 L 209.51 554.91 L 212.24 554.12 L 214.98 550.68 L 217.71 556.31 L 220.44 556.90 L 223.18 559.26 L 225.91 560.14 L 228.64 562.37 L 231.37 548.49 L 234.11 555.16 L 236.84 562.20 L 239.57 565.74 L 242.31 567.14 L 245.04 570.66 L 247.77 569.74 L 250.50 568.57 L 253.24 568.92 L 255.97 567.25 L 258.70 567.54 L 261.44 567.70 L 264.17 567.32 L 266.90 568.35 L 269.63 567.99 L 272.37 568.13 L 275.10 566.73 L 277.83 560.64 L 280.56 562.20 L 283.30 559.89 L 286.03 564.38 L 288.76 566.10 L 291.50 571.58 L 294.23 573.58 L 296.96 574.59 L 299.69 573.52 L 302.43 573.48 L 305.16 568.54 L 307.89 568.07 L 310.63 569.22 L 313.36 568.52 L 316.09 570.56 L 318.82 570.38 L 321.56 571.67 L 324.29 571.07 L 327.02 571.92 L 329.76 571.10 L 332.49 569.94 L 335.22 567.83 L 337.95 568.76 L 340.69 568.71 L 343.42 570.22 L 346.15 570.24 L 348.89 569.97 L 351.62 566.03 L 354.35 567.47 L 357.08 567.85 L 359.82 567.94 L 362.55 560.18 L 365.28 557.92 L 368.02 570.06 L 370.75 570.63 L 373.48 571.12 L 376.21 570.23 L 378.95 567.78 L 381.68 570.51 L 384.41 572.60 L 387.15 572.48 L 389.88 573.29 L 392.61 574.45 L 395.34 575.49 L 398.08 575.65 L 400.81 575.55 L 403.54 576.20 L 406.27 578.66 L 409.01 577.70 L 411.74 575.89 L 414.47 576.56 L 417.21 576.58 L 419.94 568.95 L 422.67 572.82 L 425.40 575.39 L 428.14 573.91 L 430.87 575.51 L 433.60 576.92 L 436.34 577.66 L 439.07 576.95 L 441.80 577.69 L 444.53 576.33 L 447.27 576.37 L 450.00 577.36 L 452.73 576.15 L 455.47 577.30 L 458.20 577.50 L 460.93 573.29 L 463.66 573.02 L 466.40 573.22 L 469.13 572.55 L 471.86 574.13 L 474.60 571.06 L 477.33 572.23 L 480.06 569.09 L 482.79 571.64 L 485.53 573.67 L 488.26 573.52 L 490.99 573.29 L 493.73 574.22 L 496.46 573.23 L 499.19 573.65 L 501.92 576.95 L 504.66 572.44 L 507.39 571.37 L 510.12 578.72 L 512.85 577.35 L 515.59 573.52 L 518.32 574.07 L 521.05 577.49 L 523.79 567.86 L 526.52 566.45 L 529.25 564.78 L 531.98 564.44 L 534.72 568.28 L 537.45 569.54 L 540.18 568.49 L 542.92 569.56 L 545.65 566.42 L 548.38 563.93 L 551.11 567.85 L 553.85 568.57 L 556.58 567.89 L 559.31 568.39 L 562.05 571.08 L 564.78 570.04 L 567.51 571.63 L 570.24 572.60 L 572.98 570.00 L 575.71 572.62 L 578.44 573.00 L 581.18 571.74 L 583.91 572.28 L 586.64 572.89 L 589.37 570.78 L 592.11 571.57 L 594.84 572.44 L 597.57 571.18 L 600.31 569.95 L 603.04 571.54 L 605.77 571.44 L 608.50 569.27 L 611.24 570.01 L 613.97 568.96 L 616.70 565.77 L 619.44 565.19 L 622.17 566.86 L 624.90 566.53 L 627.63 568.86 L 630.37 568.73 L 633.10 568.51 L 635.83 568.27 L 638.56 570.39 L 641.30 571.67 L 644.03 569.56 L 646.76 569.50 L 649.50 567.35 L 652.23 569.75 L 654.96 572.72 L 657.69 574.40 L 660.43 574.27 L 663.16 575.45 L 665.89 575.96 L 668.63 575.84 L 671.36 575.71 L 674.09 577.27 L 676.82 575.55 L 679.56 576.48 L 682.29 575.29 L 685.02 574.32 L 687.76 573.93 L 690.49 575.27 L 693.22 575.85 L 695.95 574.45 L 698.69 575.52 L 701.42 574.95 L 704.15 575.40 L 706.89 575.90 L 709.62 574.68 L 712.35 577.20 L 715.08 576.59 L 717.82 575.63 L 720.55 577.53 L 723.28 576.54 L 726.02 576.70 L 728.75 576.99 L 731.48 577.57 L 734.21 576.02 L 736.95 576.44 L 739.68 577.04 L 742.41 575.51 L 745.15 575.49 L 747.88 575.24 L 750.61 577.10 L 753.34 577.80 L 756.08 576.19 L 758.81 577.43 L 761.54 578.18 L 764.27 579.05 L 767.01 577.17 L 769.74 576.96 L 772.47 575.28 L 775.21 577.23 L 777.94 576.47 L 780.67 577.62 L 783.40 576.53 L 786.14 577.17 L 788.87 575.37 L 791.60 577.35 L 794.34 576.07 L 797.07 575.97 L 799.80 574.65 L 802.53 575.74 L 805.27 575.55 L 808.00 576.75 L 810.73 576.54 L 813.47 578.01 L 816.20 574.62 L 818.93 575.91 L 821.66 576.03 L 824.40 575.48 L 827.13 574.38 L 829.86 574.92 L 832.60 575.79 L 835.33 571.98 L 838.06 564.82 L 840.79 567.60 L 843.53 565.62 L 846.26 572.15 L 848.99 576.44 L 851.73 573.28 L 854.46 575.84 L 857.19 577.02 L 859.92 575.93 L 862.66 572.64 L 865.39 576.39 L 868.12 578.57 L 870.85 581.13 L 873.59 580.24 L 876.32 577.11 L 879.05 575.30 L 881.79 575.19 L 884.52 573.20 L 887.25 577.30 L 889.98 578.85 L 892.72 576.98 L 895.45 577.75 L 898.18 559.88 L 900.92 565.01 L 903.65 566.14 L 906.38 568.22 L 909.11 566.38 L 911.85 564.53 L 914.58 564.69 L 917.31 565.16 L 920.05 564.21 L 922.78 567.19 L 925.51 568.49 L 928.24 569.14 L 930.98 568.71 L 933.71 561.39 L 936.44 565.69 L 939.18 566.13 L 941.91 568.89 L 944.64 573.18 L 947.37 577.39 L 950.11 578.13 L 952.84 578.79 L 955.57 578.70 L 958.31 579.00 L 961.04 581.70 L 963.77 582.20 L 966.50 582.61 L 969.24 579.91 L 971.97 579.61 L 974.70 580.70 L 977.44 582.66 L 980.17 581.90 L 982.90 583.72 L 985.63 584.41 L 988.37 583.08 L 991.10 582.35 L 993.83 582.74 L 996.56 584.96 L 999.30 584.37 L 1002.03 586.48 L 1004.76 585.35 L 1007.50 585.72 L 1010.23 585.79 L 1012.96 586.09 L 1015.69 585.07 L 1018.43 584.63 L 1021.16 586.10 L 1023.89 586.30 L 1026.63 587.12 L 1029.36 586.31 L 1032.09 585.17 L 1034.82 586.12 L 1037.56 586.75 L 1040.29 585.92 L 1043.02 584.77 L 1045.76 584.67 L 1048.49 584.68 L 1051.22 582.27 L 1053.95 571.89 L 1056.69 571.96 L 1059.42 570.30 L 1062.15 574.33 L 1064.89 577.68 L 1067.62 578.64 L 1070.35 574.29 L 1073.08 575.93 L 1075.82 575.39 L 1078.55 577.56 L 1081.28 581.38 L 1084.02 583.60 L 1086.75 585.67 L 1089.48 587.69 L 1092.21 585.92 L 1094.95 590.07 L 1097.68 586.95 L 1100.41 588.35 L 1103.15 588.95 L 1105.88 588.55 L 1108.61 587.34 L 1111.34 587.50 L 1114.08 583.26 L 1116.81 584.66 L 1119.54 585.02 L 1122.27 583.48 L 1125.01 584.29 L 1127.74 585.62 L 1130.47 587.21 L 1133.21 585.50 L 1135.94 572.61 L 1138.67 574.76 L 1141.40 576.94 L 1144.14 576.70 L 1146.87 577.07 L 1149.60 580.11 L 1152.34 580.41 L 1155.07 579.89 L 1157.80 579.63 L 1160.53 580.07 L 1163.27 579.83 L 1166.00 579.51" class="line" stroke="#2ca02c"/>
<circle cx="1094.95" cy="284.01" r="6" fill="#1f77b4" stroke="#ffffff" stroke-width="2"/>
<line x1="1094.95" y1="236.01" x2="1094.95" y2="276.01" stroke="#1f77b4" stroke-width="1.5" stroke-dasharray="4 4"/>
<text x="1086.95" y="230.01" text-anchor="end" class="note">Best total: e368, 1.4198</text>
<circle cx="1166.00" cy="267.70" r="5" fill="#ffffff" stroke="#1f77b4" stroke-width="2"/>
<text x="1158.00" y="299.70" text-anchor="end" class="note">Last logged: e394, 1.4746</text>
<line x1="921" y1="90" x2="957" y2="90" stroke="#1f77b4" stroke-width="3" stroke-linecap="round"/>
<text x="967" y="95" class="legend">Lv + Ls</text>
<line x1="921" y1="116" x2="957" y2="116" stroke="#d62728" stroke-width="3" stroke-linecap="round"/>
<text x="967" y="121" class="legend">Lv</text>
<line x1="921" y1="142" x2="957" y2="142" stroke="#2ca02c" stroke-width="3" stroke-linecap="round"/>
<text x="967" y="147" class="legend">Ls</text>
<rect x="110" y="508" width="360" height="92" rx="6" fill="#f8fafc" stroke="#d1d5db"/>
<text x="126" y="534" class="note">Initial total: 1.9837 (epoch 1)</text>
<text x="126" y="558" class="note">Last logged total: 1.4746 (epoch 394)</text>
<text x="126" y="582" class="note">Decrease: 25.67%</text>
</svg>